<svg xmlns="http://www.w3.org/2000/svg" xmlns:xlink="http://www.w3.org/1999/xlink" viewBox="0 0 238.28 122.8"><defs><style>.cls-1{fill:#fff;}.cls-2{fill:#fefefe;}.cls-3{fill:url(#linear-gradient);}.cls-4{fill:none;}</style><linearGradient id="linear-gradient" x1="233.72" y1="59.01" x2="234.41" y2="59.01" gradientUnits="userSpaceOnUse"><stop offset="0" stop-color="#fff"/><stop offset="0" stop-color="#e2433a"/><stop offset="1" stop-color="#f0963d"/></linearGradient></defs><g id="Layer_2" data-name="Layer 2"><g id="Layer_1-2" data-name="Layer 1"><path class="cls-1" d="M204,73.57c-.46.25-3.74,2.36-8.34,5.35-1.09.73-2.18,1.44-3.24,2.19-.43.31-.66.2-1-.2-1.14-1.48-1.72-2.21-1.61-2.83s.49-.85,2.42-2.12L197,72.84l2.18-1.4c2.2-1.4,2.53-1.58,3-1.47.63.15,1.11,1,2,2.66C204.6,73.32,204.05,73.54,204,73.57Z"/><path class="cls-1" d="M219.92,25.71q-1.26,5.36-2.54,10.7c-.43,1.81-.44,1.81-2.32,1.71-2.29.11-2.29.11-3.15-2-.18-.44-.33-.89-.49-1.34-.3-.67-.9-.53-1.43-.49-.68.05-.93-.2-.89-.88.15-3-.72-2.71,2.85-2.49a1.4,1.4,0,0,1,2,1.25,9.31,9.31,0,0,0,.45,1.21c.44-.2.4-.64.49-1,.72-2.94,1.46-5.88,2.12-8.83.17-.76.51-.9,1.16-.73C220.93,23.61,220.54,23,219.92,25.71Z"/><path class="cls-1" d="M217.72,46.67a2.27,2.27,0,0,1-2.66,2.44c-1.43-.4-2.11-1.24-2-2.48a2.13,2.13,0,0,1,2-2.06A2.16,2.16,0,0,1,217.72,46.67Z"/><path class="cls-1" d="M212.26,18.94c-.94,2.09-.92,2.1-2.87,1-1-.55-2-1.12-3-1.69-1.44-.75-2.89-1.51-4.34-2.25-.46-.23-.47-.49-.26-.95,1-2.16.94-2.17,3-1,.62.35,1.23.73,1.84,1.09,1.75.92,3.49,1.86,5.25,2.77C212.41,18.16,212.5,18.41,212.26,18.94Z"/><circle class="cls-1" cx="209.28" cy="12.01" r="2"/><path class="cls-1" d="M188.85,10.29c.51.75,1,1.52,1.54,2.27.3.42.41.71-.13,1-.89.54-1.74,1.13-2.58,1.74-.42.31-.66.27-.94-.18-.73-1.18-1.51-2.33-2.27-3.5.48-.35.43-.85.44-1.38s0-.88,0-1.33c0,.41,0,.82,0,1.22s0,1-.49,1.36c-.33-.43-.66-.37-1.08-.08-.57.39-1.19.7-1.79,1.05-2.08,1.57-2.08,1.57-3.41-.54C177,10.15,177,10.14,178.76,9c.75-.46,1.5-.89,2.26-1.33.51-.33.49-.67.16-1.17-.72-1-1.35-2.17-2.06-3.23-.34-.5-.34-.81.23-1.13,1-.57,2.11-1.75,3.06-1.66s1.28,1.76,1.93,2.7a15.1,15.1,0,0,1,.77,1.35c0,.05,0,.11,0,.17.38.24.65-.09.93-.28,1-.68,2.07-1.35,3.07-2.08.56-.4.89-.33,1.22.26.56,1,1.87,1.93,1.71,2.89s-1.7,1.39-2.64,2.05C187.76,8.69,187.75,8.67,188.85,10.29Z"/><path class="cls-1" d="M187.56,28.83c-.52.58-1.07,1.12-1.6,1.68-1.42,1.61-2.85,3.22-4.24,4.85-.39.45-.68.48-1.17.1-2-1.51-2-1.5-.37-3.29.83-.92,1.69-1.82,2.53-2.73,1.16-1.34,2.32-2.67,3.47-4,.36-.42.64-.37,1.08,0C189.28,26.94,189.3,26.92,187.56,28.83Z"/><path class="cls-1" d="M199.42,28.68c-2.18,2-1.18,2.37-4-.58l-2.16-2.16c-1-1-2-1.94-3-2.88-.38-.36-.38-.61,0-1,1.09-1,2.16-2.07,3.24-3.12A11.51,11.51,0,0,1,195.38,17c.29-.32.58-.65.89-.95,1.4-1.41,1.37-1.38,2.83,0,.66.62.77,1,0,1.68-1.13,1-2.16,2.08-3.23,3.13-1.43,1.65-1.43,1.65,0,3.31,1.19,1.16,2.37,2.33,3.56,3.47C199.84,28.07,199.78,28.36,199.42,28.68Z"/><path class="cls-1" d="M190.34,36.32a2.29,2.29,0,0,1-3.43-.21,2.25,2.25,0,0,1,.23-3.27,2.1,2.1,0,0,1,3,.08A2.21,2.21,0,0,1,190.34,36.32Z"/><path class="cls-1" d="M181.78,26.13a2.16,2.16,0,0,1-2.68,2.18,2.13,2.13,0,0,1-2-2.25,2.15,2.15,0,0,1,2-2.26C180.84,23.72,181.82,24.57,181.78,26.13Z"/><path class="cls-2" d="M234.41,60l-.17,0a1.18,1.18,0,0,1,0-2l.16,0A1.3,1.3,0,0,0,234,59,1.25,1.25,0,0,0,234.41,60Z"/><circle class="cls-1" cx="210.78" cy="71.51" r="3.5"/><path class="cls-3" d="M234,59a1.3,1.3,0,0,1,.41-.94l-.16,0a1.18,1.18,0,0,0,0,2l.17,0A1.25,1.25,0,0,1,234,59Z"/><path class="cls-1" d="M235.28,56a3,3,0,1,0,3,3A3,3,0,0,0,235.28,56Zm-1,4a1.18,1.18,0,0,1,0-2l.16,0A1.3,1.3,0,0,0,234,59a1.25,1.25,0,0,0,.42.94Z"/><circle class="cls-1" cx="204.28" cy="21.01" r="2"/><circle class="cls-1" cx="206.28" cy="84.01" r="2"/><circle class="cls-1" cx="197.28" cy="87.01" r="3"/><polygon class="cls-1" points="209.85 59.02 212.43 64.12 208.34 66.18 205.77 61.08 200.67 63.66 198.61 59.57 203.71 57 201.13 51.9 205.22 49.84 207.79 54.94 212.89 52.36 214.95 56.45 209.85 59.02"/><polyline class="cls-4" points="234.53 49.76 234.86 49.43 234.87 49.43 235.78 48.51"/><polyline class="cls-4" points="224.28 60.01 224.93 59.36 225.53 58.76"/><path class="cls-1" d="M203.79,42.25c-1.35,2.57-1.34,2.58-3.75,1-.36-.23-.7-.5-1-.76a23.87,23.87,0,0,1-3.37-2.17l-3.22-2s-.08,0-.09-.07c-.38-1.15.74-1.66,1.08-2.5.17-.41.44-.8,1-.4s1.3.9,2,1.35a17.46,17.46,0,0,1,2.92,1.87c1.44.9,2.87,1.82,4.32,2.7C204,41.57,204,41.81,203.79,42.25Z"/><path class="cls-1" d="M200.26,46.9c.32,1.2-.83,1.74-1.18,2.64-.19.49-.55.49-1,.2-1-.67-2-1.32-3-2l-3.11-2c-.48-.29-1-.56-1.42-.86-2.35-1.56-2.34-1.55-.68-3.83.28-.38.48-.59.93-.25s1.1.77,1.65,1.16a17.65,17.65,0,0,1,2.9,1.86l4.64,2.92C200.13,46.81,200.24,46.85,200.26,46.9Z"/><path class="cls-1" d="M151.05,57.11c.43-.41.86-.81,1.28-1.23,4.26-4.27,8.17-8.9,13.1-12.46a19.29,19.29,0,0,1,7.9-2.55c1-.07,1.21-.38,1.21-1.34q-.06-19,0-38.08c0-.2,0-.4,0-.6,0-.6-.25-.75-.8-.72a59.93,59.93,0,0,0-8.55.93,54.15,54.15,0,0,0-14.66,4.45c-7,3-12.79,7.55-18.2,12.73-.41.37-.85.72-1.24,1.11q-5.43,5.41-10.83,10.84c-.59.6-1.13,1.5-1.82,1.66s-1.14-1.05-1.87-1.44c-2.69-2.76-5.35-5.55-8.09-8.27a94.61,94.61,0,0,0-9.06-8.27c-.31-.54-.94-.68-1.39-1.06A43.67,43.67,0,0,0,87.77,6.22,52.62,52.62,0,0,0,73.39,1.36a36.86,36.86,0,0,0-6-1A49.16,49.16,0,0,0,57,.2a48.65,48.65,0,0,0-12.45,2,46.17,46.17,0,0,0-10.81,4.2,48.85,48.85,0,0,0-10.52,6.81,51.89,51.89,0,0,0-9.84,10,2.78,2.78,0,0,0-.44.39C2.27,38.15-2.14,54.23,1,72.12a60.34,60.34,0,0,0,12.2,27.19,54.47,54.47,0,0,0,10.08,10.27,48.85,48.85,0,0,0,10.52,6.81,42.82,42.82,0,0,0,9.59,3.84,43.05,43.05,0,0,0,9.85,2,48.06,48.06,0,0,0,10.31.42A52.61,52.61,0,0,0,75,121.09,51.35,51.35,0,0,0,88,116.51,51.69,51.69,0,0,0,99.39,109a3.94,3.94,0,0,0,.4-.26c6-5,11.33-10.69,16.76-16.28a11.38,11.38,0,0,0,1.12-1.07c.47-.57.82-.56,1.32,0,.77.86,1.61,1.66,2.43,2.47,3.64,3.59,7,7.4,10.89,10.77a61.75,61.75,0,0,0,7.05,6.08A47.67,47.67,0,0,0,151,117.54a53.22,53.22,0,0,0,15.33,4.39,57,57,0,0,0,6.88.74c1,.1,1.29-.14,1.29-1.16,0-7.79,0-15.57,0-23.35,0-5,0-10.06,0-15.09,0-.49.17-1-.69-1.07a19.52,19.52,0,0,1-7.43-2.07,31.77,31.77,0,0,1-6.8-5.59q-4-4.07-8.06-8.14c-1.24-1.35-2.44-2.73-3.72-4-.6-.6-.55-1,0-1.54C149,59.5,150,58.29,151.05,57.11ZM87.4,63.77,74.71,76.71c-.66.18-.94.81-1.43,1.2a19.17,19.17,0,0,1-10,4.17,24.77,24.77,0,0,1-9.83-1.44,20.05,20.05,0,0,1-9.53-7.74,26.77,26.77,0,0,1-3.18-8.68,20.9,20.9,0,0,1,2.58-13.11c.48-.9,1.06-1.74,1.6-2.62a20.76,20.76,0,0,1,12.14-7.37,19.88,19.88,0,0,1,12.26,1.31,35.3,35.3,0,0,1,3.77,2.28c5,4.56,9.6,9.58,14.37,14.41.47.9,1.88,1.41,1.73,2.37S88,63,87.4,63.77Z"/><polygon class="cls-1" points="190.78 89.69 190.78 93.83 185.6 93.83 185.6 99.01 181.46 99.01 181.46 93.83 176.28 93.83 176.28 89.69 181.46 89.69 181.46 84.51 185.6 84.51 185.6 89.69 190.78 89.69"/><polygon class="cls-1" points="228.95 80.45 223.85 83.02 226.43 88.12 222.34 90.18 219.77 85.08 214.67 87.66 212.61 83.57 217.71 81 215.13 75.9 219.22 73.84 221.79 78.94 226.89 76.36 228.95 80.45"/><circle class="cls-1" cx="226.28" cy="51.01" r="3"/><path class="cls-1" d="M216.18,63.88c-.36-.4-.33-.63.07-.94.79-.62,1.55-1.26,2.29-1.93.41-.36.71-.41,1.07.07.49.67,1,1.31,1.55,2a28.89,28.89,0,0,1,2.8,3.35c1.5,1.75,3,3.51,4.51,5.25.35.4.3.69-.1,1a5.45,5.45,0,0,0-.46.38c-2.47,2-2.47,2-4.47-.56l-2.9-3.51C219.09,67.25,217.65,65.55,216.18,63.88Z"/><polygon class="cls-1" points="225.53 58.76 234.53 49.76 236.03 51.37 227.03 61.01 225.53 59.4 225.84 59.07 225.53 58.76"/><polyline class="cls-4" points="225.84 59.07 226.03 59.26 227.03 60.26"/><circle class="cls-1" cx="220.5" cy="97.66" r="3"/><path class="cls-1" d="M233.79,43.67c-.76.58-1.5,1.19-2.2,1.84-.47.44-.78.35-1.15-.13-.71-.91-1.46-1.78-2.2-2.67l-2.61-3.17c-1.31-1.53-2.61-3.08-4-4.58-.44-.5-.32-.78.16-1.12a12.93,12.93,0,0,0,1-.83c1.87-1.56,1.87-1.56,3.31.5a28,28,0,0,1,2.85,3.4c1.63,1.9,3.25,3.81,4.89,5.7C234.25,43,234.24,43.32,233.79,43.67Z"/><path class="cls-1" d="M194,107.82c-.28,3-.54,6-.78,9-.14,1.68-.12,1.68-1.8,1.61a4,4,0,0,1-1.53-.23,23.57,23.57,0,0,1-3.84-.3l-3.36-.33a5.86,5.86,0,0,1-.94-.06c-.71-.16-1.81.32-2.07-.42-.39-1.06,0-2.27.18-3.41.06-.39.45-.22.7-.2l2.13.24a25.19,25.19,0,0,1,3.36.36l3.44.19c.27-2.89.56-5.79.81-8.68,0-.66.26-.85.93-.85C194.3,104.8,194.28,104.78,194,107.82Z"/><path class="cls-1" d="M214.64,103.69a.25.25,0,0,1-.19.3L200,107.06a.32.32,0,0,1-.37-.24l-.5-2.33a.32.32,0,0,1,.24-.37l14.37-3.05a.31.31,0,0,1,.37.24Z"/><path class="cls-1" d="M213.45,97,199,100.06a.32.32,0,0,1-.37-.24l-.5-2.33a.32.32,0,0,1,.24-.37l14.37-3.05a.31.31,0,0,1,.37.24l.51,2.38A.25.25,0,0,1,213.45,97Z"/><circle class="cls-1" cx="201.78" cy="113.51" r="2.5"/></g></g></svg>