<svg xmlns="http://www.w3.org/2000/svg" xmlns:xlink="http://www.w3.org/1999/xlink" viewBox="0 0 238.28 122.8"><defs><style>.cls-1{fill:url(#linear-gradient);}.cls-2{fill:url(#linear-gradient-2);}.cls-3{fill:url(#linear-gradient-3);}.cls-4{fill:url(#linear-gradient-4);}.cls-5{fill:url(#linear-gradient-5);}.cls-6{fill:#e46036;}.cls-7{fill:url(#linear-gradient-6);}.cls-8{fill:url(#linear-gradient-7);}.cls-9{fill:url(#linear-gradient-8);}.cls-10{fill:url(#linear-gradient-9);}.cls-11{fill:url(#linear-gradient-10);}.cls-12{fill:url(#linear-gradient-11);}.cls-13{fill:url(#linear-gradient-12);}.cls-14{fill:url(#linear-gradient-13);}.cls-15{fill:url(#linear-gradient-14);}.cls-16{fill:#fefefe;}.cls-17{fill:url(#linear-gradient-15);}.cls-18{fill:url(#linear-gradient-16);}.cls-19{fill:url(#linear-gradient-17);}.cls-20{fill:url(#linear-gradient-18);}.cls-21{fill:url(#linear-gradient-19);}.cls-22{fill:url(#linear-gradient-20);}.cls-23{fill:url(#linear-gradient-21);}.cls-24{fill:url(#linear-gradient-22);}.cls-25{fill:url(#linear-gradient-23);}.cls-26{fill:url(#linear-gradient-24);}.cls-27{fill:url(#linear-gradient-25);}.cls-28{fill:url(#linear-gradient-26);}.cls-29{fill:none;}.cls-30{fill:url(#linear-gradient-27);}.cls-31{fill:url(#linear-gradient-28);}</style><linearGradient id="linear-gradient" x1="225.53" y1="55.39" x2="236.03" y2="55.39" gradientUnits="userSpaceOnUse"><stop offset="0" stop-color="#fff"/><stop offset="0" stop-color="#e2433a"/><stop offset="1" stop-color="#f0963d"/></linearGradient><linearGradient id="linear-gradient-2" x1="0" y1="61.4" x2="174.54" y2="61.4" xlink:href="#linear-gradient"/><linearGradient id="linear-gradient-3" x1="215.93" y1="67.61" x2="228.7" y2="67.61" xlink:href="#linear-gradient"/><linearGradient id="linear-gradient-4" x1="189.82" y1="75.62" x2="204.36" y2="75.62" xlink:href="#linear-gradient"/><linearGradient id="linear-gradient-5" x1="221.4" y1="38.85" x2="234.15" y2="38.85" xlink:href="#linear-gradient"/><linearGradient id="linear-gradient-6" x1="177.32" y1="8.03" x2="192.01" y2="8.03" xlink:href="#linear-gradient"/><linearGradient id="linear-gradient-7" x1="189.97" y1="22.65" x2="199.72" y2="22.65" xlink:href="#linear-gradient"/><linearGradient id="linear-gradient-8" x1="192.23" y1="39.77" x2="203.94" y2="39.77" xlink:href="#linear-gradient"/><linearGradient id="linear-gradient-9" x1="188.78" y1="45.3" x2="200.31" y2="45.3" xlink:href="#linear-gradient"/><linearGradient id="linear-gradient-10" x1="179.51" y1="111.64" x2="194.12" y2="111.64" xlink:href="#linear-gradient"/><linearGradient id="linear-gradient-11" x1="209.1" y1="30.48" x2="220.37" y2="30.48" xlink:href="#linear-gradient"/><linearGradient id="linear-gradient-12" x1="-20.89" y1="-333.5" x2="-16.16" y2="-333.5" gradientTransform="translate(-34.07 283.58) rotate(45)" xlink:href="#linear-gradient"/><linearGradient id="linear-gradient-13" x1="213.03" y1="46.84" x2="217.72" y2="46.84" xlink:href="#linear-gradient"/><linearGradient id="linear-gradient-14" x1="177.14" y1="26.07" x2="181.79" y2="26.07" xlink:href="#linear-gradient"/><linearGradient id="linear-gradient-15" x1="207.28" y1="71.51" x2="214.28" y2="71.51" xlink:href="#linear-gradient"/><linearGradient id="linear-gradient-16" x1="232.28" y1="59.01" x2="238.28" y2="59.01" xlink:href="#linear-gradient"/><linearGradient id="linear-gradient-17" x1="223.28" y1="51.01" x2="229.28" y2="51.01" xlink:href="#linear-gradient"/><linearGradient id="linear-gradient-18" x1="199.28" y1="113.51" x2="204.28" y2="113.51" xlink:href="#linear-gradient"/><linearGradient id="linear-gradient-19" x1="217.5" y1="97.66" x2="223.5" y2="97.66" xlink:href="#linear-gradient"/><linearGradient id="linear-gradient-20" x1="207.28" y1="12.01" x2="211.28" y2="12.01" xlink:href="#linear-gradient"/><linearGradient id="linear-gradient-21" x1="202.28" y1="21.01" x2="206.28" y2="21.01" xlink:href="#linear-gradient"/><linearGradient id="linear-gradient-22" x1="204.28" y1="84.01" x2="208.28" y2="84.01" xlink:href="#linear-gradient"/><linearGradient id="linear-gradient-23" x1="194.28" y1="87.01" x2="200.28" y2="87.01" xlink:href="#linear-gradient"/><linearGradient id="linear-gradient-24" x1="-174.44" y1="-413.54" x2="-158.44" y2="-413.54" gradientTransform="matrix(0.45, 0.89, -0.89, 0.45, -87.41, 392.93)" xlink:href="#linear-gradient"/><linearGradient id="linear-gradient-25" x1="-146.7" y1="-415.23" x2="-130.7" y2="-415.23" gradientTransform="matrix(0.45, 0.89, -0.89, 0.45, -87.41, 392.93)" xlink:href="#linear-gradient"/><linearGradient id="linear-gradient-26" x1="184.08" y1="87.32" x2="198.58" y2="87.32" gradientTransform="translate(-7.8 4.45)" xlink:href="#linear-gradient"/><linearGradient id="linear-gradient-27" x1="-300.75" y1="-228" x2="-293.94" y2="-235.07" gradientTransform="translate(504.24 426.36) scale(1 1.39)" xlink:href="#linear-gradient"/><linearGradient id="linear-gradient-28" x1="-307.8" y1="-228.35" x2="-301" y2="-235.41" gradientTransform="translate(510.3 419.83) scale(1 1.39)" xlink:href="#linear-gradient"/></defs><g id="Layer_2" data-name="Layer 2"><g id="Layer_1-2" data-name="Layer 1"><polygon class="cls-1" points="236.03 51.37 227.03 61.01 225.53 59.41 234.53 49.76 236.03 51.37"/><path class="cls-2" d="M174.51,83.07c0-.49.17-1-.69-1.07a19.52,19.52,0,0,1-7.43-2.07,31.77,31.77,0,0,1-6.8-5.59q-4-4.07-8.06-8.14c-1.24-1.35-2.44-2.73-3.72-4-.6-.6-.55-1,0-1.54,1.12-1.13,2.15-2.34,3.22-3.52.43-.41.86-.81,1.28-1.23,4.26-4.27,8.17-8.9,13.1-12.46a19.29,19.29,0,0,1,7.9-2.55c1-.07,1.21-.38,1.21-1.34q-.06-19,0-38.08c0-.2,0-.4,0-.6,0-.6-.25-.75-.8-.72a59.93,59.93,0,0,0-8.55.93,54.15,54.15,0,0,0-14.66,4.45c-7,3-12.79,7.55-18.2,12.73-.41.37-.85.72-1.24,1.11q-5.43,5.41-10.83,10.84c-.59.6-1.13,1.5-1.82,1.66s-1.14-1.05-1.87-1.44c-2.69-2.76-5.35-5.55-8.09-8.27a94.61,94.61,0,0,0-9.06-8.27c-.31-.54-.94-.68-1.39-1.06A43.67,43.67,0,0,0,87.77,6.22,52.62,52.62,0,0,0,73.39,1.36a36.86,36.86,0,0,0-6-1A49.16,49.16,0,0,0,57,.2a48.65,48.65,0,0,0-12.45,2,46.17,46.17,0,0,0-10.81,4.2,48.85,48.85,0,0,0-10.52,6.81,51.89,51.89,0,0,0-9.84,10,2.78,2.78,0,0,0-.44.39C2.27,38.15-2.14,54.23,1,72.12a60.34,60.34,0,0,0,12.2,27.19,54.47,54.47,0,0,0,10.08,10.27,48.85,48.85,0,0,0,10.52,6.81,42.82,42.82,0,0,0,9.59,3.84,43.05,43.05,0,0,0,9.85,2,48.06,48.06,0,0,0,10.31.42A52.61,52.61,0,0,0,75,121.09,51.35,51.35,0,0,0,88,116.51,51.69,51.69,0,0,0,99.39,109a3.94,3.94,0,0,0,.4-.26c6-5,11.33-10.69,16.76-16.28a11.38,11.38,0,0,0,1.12-1.07c.47-.57.82-.56,1.32,0,.77.86,1.61,1.66,2.43,2.47,3.64,3.59,7,7.4,10.89,10.77a61.75,61.75,0,0,0,7.05,6.08A47.67,47.67,0,0,0,151,117.54a53.22,53.22,0,0,0,15.33,4.39,57,57,0,0,0,6.88.74c1,.1,1.29-.14,1.29-1.16,0-7.79,0-15.57,0-23.35C174.51,93.13,174.52,88.1,174.51,83.07ZM87.4,63.77,74.71,76.71c-.66.18-.94.81-1.43,1.2a19.17,19.17,0,0,1-10,4.17,24.77,24.77,0,0,1-9.83-1.44,20.05,20.05,0,0,1-9.53-7.74,26.77,26.77,0,0,1-3.18-8.68,20.9,20.9,0,0,1,2.58-13.11c.48-.9,1.06-1.74,1.6-2.62a20.76,20.76,0,0,1,12.14-7.37,19.88,19.88,0,0,1,12.26,1.31,35.3,35.3,0,0,1,3.77,2.28c5,4.56,9.6,9.58,14.37,14.41.47.9,1.88,1.41,1.73,2.37S88,63,87.4,63.77Z"/><path class="cls-3" d="M228.47,71.64c-1.51-1.74-3-3.5-4.51-5.25a28.79,28.79,0,0,0-2.8-3.34c-.52-.66-1.06-1.29-1.55-2-.36-.48-.66-.44-1.07-.07q-1.11,1-2.28,1.92c-.41.32-.44.54-.08.94,1.47,1.67,2.91,3.37,4.36,5.06a2.72,2.72,0,0,0,.11-.38,2.72,2.72,0,0,1-.11.38l2.9,3.51c2,2.61,2,2.61,4.47.56.15-.13.3-.26.46-.38C228.77,72.34,228.82,72,228.47,71.64Zm-7.65-7.17a10.42,10.42,0,0,0,0,1.12A10.42,10.42,0,0,1,220.82,64.47Zm0,2.84a5.36,5.36,0,0,1-.12,1A5.36,5.36,0,0,0,220.84,67.31Z"/><path class="cls-4" d="M204.22,72.64c-.92-1.68-1.39-2.52-2-2.67-.46-.11-.8.07-3,1.47L197,72.84c-1.58,1-3.17,2.08-4.76,3.13-1.93,1.27-2.32,1.54-2.42,2.11s.47,1.36,1.62,2.84c.3.39.53.5,1,.2,1.06-.75,2.15-1.47,3.24-2.2,4.6-3,7.88-5.1,8.34-5.34C204.05,73.54,204.6,73.33,204.22,72.64Z"/><path class="cls-5" d="M233.88,42.61c-1.64-1.89-3.26-3.8-4.88-5.7a29.92,29.92,0,0,0-2.86-3.4c-1.44-2.06-1.44-2.06-3.31-.5-.33.28-.65.59-1,.84s-.6.61-.15,1.12c1.34,1.5,2.64,3.05,3.95,4.57l2.61,3.18c.74.88,1.5,1.76,2.2,2.67.37.47.68.57,1.15.12.71-.64,1.44-1.25,2.2-1.84C234.24,43.32,234.25,43,233.88,42.61Z"/><path class="cls-6" d="M211.92,17.91c-1.76-.9-3.5-1.84-5.25-2.77-.61-.36-1.22-.74-1.84-1.08-2.09-1.15-2.07-1.14-3,1-.21.46-.2.72.26,1,1.46.74,2.9,1.5,4.34,2.25,1,.56,2,1.14,3,1.69,2,1.07,1.93,1.06,2.87-1C212.5,18.42,212.41,18.17,211.92,17.91Z"/><path class="cls-6" d="M181.72,35.36c1.4-1.63,2.82-3.23,4.24-4.84.53-.56,1.08-1.11,1.6-1.68,1.74-1.91,1.73-1.9-.3-3.45-.44-.34-.72-.39-1.08,0l-3.47,4c-.84.9-1.7,1.8-2.53,2.72-1.62,1.79-1.6,1.78.37,3.29C181,35.84,181.33,35.81,181.72,35.36Z"/><path class="cls-7" d="M189.36,7.57c.94-.65,2.47-1.08,2.64-2.05s-1.15-1.88-1.71-2.88c-.33-.59-.66-.67-1.22-.26-1,.73-2,1.39-3.07,2.08-.28.19-.55.52-.93.28,0-.06,0-.12,0-.18a13.67,13.67,0,0,0-.77-1.34c-.65-.94-1-2.61-1.93-2.7s-2,1.08-3.06,1.66c-.57.32-.57.62-.23,1.13.71,1.06,1.34,2.17,2.06,3.23.34.49.35.83-.16,1.16-.75.44-1.51.87-2.26,1.33-1.8,1.12-1.8,1.12-.66,2.93,1.33,2.11,1.33,2.11,3.41.55.6-.35,1.22-.67,1.79-1.06.42-.29.75-.34,1.08.09.49-.34.46-.84.49-1.36s0-.82,0-1.22a11.81,11.81,0,0,1,0,1.33c0,.52.05,1-.44,1.38.76,1.16,1.54,2.32,2.27,3.5.28.44.52.48.94.18.84-.61,1.69-1.2,2.58-1.74.54-.33.43-.63.14-1-.54-.74-1-1.51-1.55-2.27C187.75,8.67,187.76,8.69,189.36,7.57Z"/><path class="cls-8" d="M199.46,27.71c-1.2-1.15-2.38-2.32-3.57-3.48-1.42-1.65-1.42-1.65,0-3.31,1.07-1.05,2.1-2.14,3.23-3.13.74-.65.63-1.05,0-1.68-1.46-1.39-1.43-1.43-2.83,0-.31.31-.59.64-.89.95A11.57,11.57,0,0,0,193.49,19c-1.08,1-2.15,2.09-3.24,3.12-.38.35-.38.6,0,1,1,.94,2,1.92,3,2.88l2.16,2.16c2.86,2.95,1.86,2.58,4,.59C199.78,28.36,199.84,28.08,199.46,27.71Z"/><path class="cls-9" d="M203.57,41.31c-1.45-.89-2.88-1.8-4.32-2.7a17.85,17.85,0,0,0-2.91-1.88c-.66-.45-1.31-.89-2-1.35s-.82,0-1,.4c-.34.84-1.46,1.35-1.08,2.5,0,0,.06,0,.09.07l3.22,2A23.94,23.94,0,0,0,199,42.51c.35.25.69.52,1,.76,2.41,1.56,2.4,1.55,3.75-1C204,41.81,204,41.57,203.57,41.31Z"/><path class="cls-10" d="M200.26,46.91c0-.06-.12-.1-.19-.14l-4.64-2.91a17.07,17.07,0,0,0-2.9-1.87c-.55-.38-1.12-.75-1.65-1.16s-.65-.13-.92.25c-1.67,2.28-1.68,2.28.67,3.83.46.3,1,.57,1.42.86l3.11,2c1,.66,2,1.31,3,2,.41.28.77.28,1-.2C199.43,48.64,200.58,48.1,200.26,46.91Z"/><path class="cls-11" d="M191.23,104.79c-.67,0-.88.19-.93.84-.25,2.9-.54,5.79-.81,8.68l-3.44-.19a23.63,23.63,0,0,0-3.36-.35c-.71-.09-1.41-.18-2.13-.25-.25,0-.64-.18-.7.21-.17,1.13-.57,2.35-.18,3.41.27.73,1.36.26,2.07.41a6,6,0,0,0,.95.06l3.35.33a22.52,22.52,0,0,0,3.84.31,4,4,0,0,0,1.53.22c1.68.08,1.66.07,1.8-1.6.24-3,.5-6,.78-9.05S194.3,104.8,191.23,104.79Z"/><path class="cls-12" d="M218.12,22.86c-.65-.18-1,0-1.16.72-.66,3-1.4,5.89-2.12,8.83-.09.38-.05.82-.49,1a11.2,11.2,0,0,1-.45-1.22A1.41,1.41,0,0,0,212,31c-3.57-.21-2.7-.49-2.85,2.49,0,.68.21.93.89.89.53,0,1.13-.19,1.43.49.16.44.31.89.49,1.33.86,2.08.86,2.08,3.15,2,1.88.11,1.89.11,2.32-1.71.85-3.56,1.71-7.13,2.54-10.7C220.55,23,220.93,23.62,218.12,22.86Z"/><path class="cls-13" d="M190.1,32.93a2.1,2.1,0,0,0-3-.09,2.26,2.26,0,0,0-.23,3.28,2.3,2.3,0,0,0,3.43.2A2.2,2.2,0,0,0,190.1,32.93Z"/><path class="cls-14" d="M215.05,44.57a2.14,2.14,0,0,0-2,2.06c-.09,1.25.59,2.09,2,2.49,1.69.06,2.73-.89,2.66-2.44A2.17,2.17,0,0,0,215.05,44.57Z"/><path class="cls-15" d="M179.1,23.81a2.16,2.16,0,0,0-2,2.26,2.13,2.13,0,0,0,2,2.25,2.17,2.17,0,0,0,2.68-2.18C181.82,24.57,180.84,23.72,179.1,23.81Z"/><path class="cls-16" d="M234.24,60a1.17,1.17,0,0,1,0-2c.54.13,1.16.18,1.2.92S234.83,59.86,234.24,60Z"/><circle class="cls-17" cx="210.78" cy="71.51" r="3.5"/><path class="cls-18" d="M235.28,56a3,3,0,1,0,3,3A3,3,0,0,0,235.28,56Zm0,4.29A1.29,1.29,0,1,1,236.57,59,1.28,1.28,0,0,1,235.28,60.3Z"/><path class="cls-19" d="M226.28,48a3,3,0,1,0,3,3A3,3,0,0,0,226.28,48Zm0,4.29A1.29,1.29,0,1,1,227.57,51,1.28,1.28,0,0,1,226.28,52.3Z"/><circle class="cls-20" cx="201.78" cy="113.51" r="2.5"/><path class="cls-21" d="M220.5,94.66a3,3,0,1,0,3,3A3,3,0,0,0,220.5,94.66Zm0,4.5a1.5,1.5,0,1,1,1.5-1.5A1.5,1.5,0,0,1,220.5,99.16Z"/><circle class="cls-22" cx="209.28" cy="12.01" r="2"/><circle class="cls-23" cx="204.28" cy="21.01" r="2"/><circle class="cls-24" cx="206.28" cy="84.01" r="2"/><circle class="cls-25" cx="197.28" cy="87.01" r="3"/><polygon class="cls-26" points="212.43 64.13 209.85 59.02 214.95 56.45 212.89 52.37 207.79 54.94 205.22 49.84 201.14 51.9 203.71 57 198.61 59.58 200.67 63.66 205.77 61.09 208.34 66.19 212.43 64.13"/><polygon class="cls-27" points="226.43 88.13 223.85 83.03 228.95 80.45 226.89 76.37 221.79 78.94 219.22 73.84 215.14 75.9 217.71 81 212.61 83.58 214.67 87.66 219.77 85.08 222.34 90.19 226.43 88.13"/><polygon class="cls-28" points="190.78 89.69 185.6 89.69 185.6 84.51 181.46 84.51 181.46 89.69 176.28 89.69 176.28 93.84 181.46 93.84 181.46 99.01 185.6 99.01 185.6 93.84 190.78 93.84 190.78 89.69"/><polyline class="cls-29" points="224.28 60.01 224.93 59.36 231.91 52.38 234.53 49.76 234.86 49.43 234.87 49.43 235.78 48.51"/><polyline class="cls-29" points="225.53 58.76 226.03 59.26 227.03 60.26"/><path class="cls-30" d="M205.7,96.41h2.44a.25.25,0,0,1,.25.25v14.75a.31.31,0,0,1-.31.31H205.7a.31.31,0,0,1-.31-.31V96.72a.31.31,0,0,1,.31-.31Z" transform="translate(265.67 -119.94) rotate(78)"/><path class="cls-31" d="M204.7,89.41h2.44a.25.25,0,0,1,.25.25v14.75a.31.31,0,0,1-.31.31H204.7a.31.31,0,0,1-.31-.31V89.72a.31.31,0,0,1,.31-.31Z" transform="translate(258.03 -124.51) rotate(78)"/></g></g></svg>